PathFileType	4	(X/Y/Z)	pose_F01_0-97.trc
DataRate	CameraRate	NumFrames	NumMarkers	Units	OrigDataRate	OrigDataStartFrame	OrigNumFrames
30	30	5	21	m	30	0	97
Frame#	Time	CHip			RHip			RKnee			RAnkle			RBigToe			RSmallToe			RHeel			LHip			LKnee			LAnkle			LBigToe			LSmallToe			LHeel			Neck			Nose			RShoulder			RElbow			RWrist			LShoulder			LElbow			LWrist			
		X1	Y1	Z1	X2	Y2	Z2	X3	Y3	Z3	X4	Y4	Z4	X5	Y5	Z5	X6	Y6	Z6	X7	Y7	Z7	X8	Y8	Z8	X9	Y9	Z9	X10	Y10	Z10	X11	Y11	Z11	X12	Y12	Z12	X13	Y13	Z13	X14	Y14	Z14	X15	Y15	Z15	X16	Y16	Z16	X17	Y17	Z17	X18	Y18	Z18	X19	Y19	Z19	X20	Y20	Z20	X21	Y21	Z21	
0	0.0	-0.2489397500343556	1.8226932041285229	-0.5529769688186471	-0.2626015484477063	1.8188574412209908	-0.4899808426658469	-0.2794981217124299	1.6856132895808396	-0.4924494903309056	-0.2865970838430222	1.550418584486174	-0.48125993452759397	-0.23677072810506553	1.518170085341164	-0.4622846356008651	-0.25117925581278483	1.5237260383488243	-0.4426408113062899	-0.22602488395053622	1.5140960588518442	-0.2974872978562497	-0.23950252964483168	1.8240534699650945	-0.6059252128856609	-0.2616572739672827	1.687426016237963	-0.5907859982108786				-0.3909502825762424	1.5406302499785298	-0.9248932397737553				-0.43040072164415877	1.5675538344193385	-0.8780382375899174	-0.2594081041176521	1.981398606770685	-0.5784957949394108	-0.2207744309448771	2.0495304922875253	-0.5778675303378807	-0.27905961550341646	1.9788052786951897	-0.49353635789837025	-0.2772277100601478	1.8937516655367226	-0.4576605773386539	-0.2616908319399687	1.8198529028163166	-0.4158119033773207	-0.2382816067263293	1.983990871691352	-0.6664253241695798	-0.23277718395516758	1.8944086379696121	-0.6777255047329819	-0.2173493954163063	1.8170400224550485	-0.6695321408287102
1	0.03333333333333333	-0.2496891745948137	1.8241966373271519	-0.5564750525253528	-0.25934539205989104	1.8219141661151002	-0.49815841069709443	-0.278443095137885	1.6855652510709132	-0.4891774867283891	-0.2865935080794826	1.5504682200729671	-0.4812664509835078	-0.23680383659966778	1.518323652140658	-0.4623057279366125	-0.2511708427002035	1.5211991767504225	-0.44206230856196044	-0.2331405456130723	1.5163416724747543	-0.31728802604975725	-0.23930956719176297	1.8254367078024303	-0.6062848366950485	-0.25953390739251536	1.6867044071563675	-0.5843526443560709				-0.3909502825762424	1.5406302499785298	-0.9248932397737553				-0.43040072164415877	1.5675538344193385	-0.8780382375899174	-0.25933758231513326	1.9813597007021941	-0.578377443424375	-0.22072524223277723	2.0495333285724815	-0.5778928546866974	-0.277973743405078	1.9787051175042556	-0.4903854267530108	-0.27623480225223535	1.8951715069873722	-0.4548064354883029	-0.25966575889838567	1.8256591236389308	-0.4100419334465192	-0.23824981685973234	1.983998713819196	-0.6663160757484359	-0.23313954566029235	1.8962630373692397	-0.6780392045843978	-0.21753717542900744	1.8191799875206303	-0.6696024792946416
2	0.06666666666666667	-0.25019152577319476	1.8228244013173023	-0.5562079187229226	-0.2608081484486641	1.8207358128181774	-0.5010946129390637	-0.2795011561083042	1.6860305318341278	-0.4924096754848986	-0.28667942554612147	1.5508453290377489	-0.48120002304015913	-0.23683694509427003	1.518477218940152	-0.46232682027235994	-0.25095297816529594	1.5227853867465706	-0.4426412463110328	-0.24025620727560837	1.5185872860976644	-0.3370887542432648	-0.23980951548192062	1.8242482621772456	-0.6059448618093471	-0.2577353031497249	1.6857190865973237	-0.577180028738922				-0.3909502825762424	1.5406302499785298	-0.9248932397737553				-0.43040072164415877	1.5675538344193385	-0.8780382375899174	-0.25839560369426073	1.9812565143984364	-0.5753273266529603	-0.22071522416842895	2.049571088441945	-0.5778441666350035	-0.27694780285820997	1.9786179847849084	-0.48722632561349116	-0.27505982322379124	1.8962306637812305	-0.451645980950757	-0.25950415657273446	1.8309687526679013	-0.41086270675188274	-0.2352606823512786	1.983967533939122	-0.6655554561209627	-0.23420270673248886	1.8985592010285819	-0.681574469013806	-0.21856547085324465	1.823078840289971	-0.669576037183745
3	0.1	-0.2511184717107901	1.8182208498439836	-0.5589097050472279	-0.2637782958875872	1.815657979033164	-0.5017400701758881	-0.27890482226235086	1.6834229018857223	-0.48836614480989443	-0.28663926048634447	1.5506184919722954	-0.4812775128391727	-0.23687005358887225	1.5186307857396464	-0.4623479126081074	-0.2511141215612371	1.5234550677352448	-0.44266133649900175	-0.24737186893814445	1.5208328997205744	-0.3568894824367723	-0.24070227934025828	1.8199200770958914	-0.6086213343788827	-0.256432660772645	1.6909496982367713	-0.5702541729356007				-0.3909502825762424	1.5406302499785298	-0.9248932397737553				-0.43040072164415877	1.5675538344193385	-0.8780382375899174	-0.2583013312938813	1.9798485609715906	-0.5748765990194874	-0.21977794084392857	2.0494515140888656	-0.5747571633899592	-0.2748346362059798	1.978252276450971	-0.48877895366072	-0.27850104205752513	1.8981038930119873	-0.46184959375242907	-0.2629700663104485	1.8487946335182768	-0.429267986651335	-0.2373528360960706	1.9837908743846466	-0.6633329536329374	-0.23489977234241513	1.8957692590360007	-0.684298999659829	-0.2165048079486476	1.820161128337017	-0.6629825302351411
4	0.13333333333333333	-0.2515952839536709	1.8202087930100488	-0.5590365840209818	-0.2652162195019798	1.8179755619313218	-0.5049073472339443	-0.27879435254785456	1.6857321338621225	-0.48855271509210857	-0.28659909542656753	1.5503916549068417	-0.48135500263818626	-0.2369031620834745	1.5187843525391405	-0.46236900494385486	-0.25139648334934134	1.5246692334168437	-0.4426497087811474	-0.2544875306006805	1.5230785133434845	-0.37669021063027985	-0.24119236805008087	1.8219777576546596	-0.608772308850088	-0.25878231117281264	1.6905222895467862	-0.5764344831046021				-0.3909502825762424	1.5406302499785298	-0.9248932397737553				-0.43040072164415877	1.5675538344193385	-0.8780382375899174	-0.2593781406603368	1.98134023179465	-0.5785099047708143	-0.2197673020640434	2.048065854159331	-0.5742866445894305	-0.27883113853061336	1.9784099090945857	-0.49312119957318123	-0.2799443728864272	1.9040436989033362	-0.46683767467277226	-0.261363798211974	1.8599613708801186	-0.4428104730326174	-0.2361782193326352	1.984025102834343	-0.6686287735035343	-0.23598654698756624	1.8977444759373572	-0.687738356060404	-0.21864948893240477	1.8238185324821414	-0.661180575466085
